<?xml version="1.0" encoding="utf-8"?>
<!-- Generator: Adobe Illustrator 26.0.1, SVG Export Plug-In . SVG Version: 6.00 Build 0)  -->
<svg version="1.1" id="Camada_1" xmlns="http://www.w3.org/2000/svg" xmlns:xlink="http://www.w3.org/1999/xlink" x="0px" y="0px"
	 viewBox="0 0 126 135" style="enable-background:new 0 0 126 135;" xml:space="preserve">
<style type="text/css">
	.st0{fill:none;stroke:#000000;stroke-width:4.2;}
	.st1{fill:none;stroke:#000000;stroke-width:3.5;}
</style>
<path class="st0" d="M96.4,113.6c-8.6,7.9-18.6,12.3-27.7,13.1c-9.2,0.8-17.3-1.9-22.6-8.2c-5.3-6.2-7-15-5.1-24.3
	c1.9-9.3,7.3-19.1,15.9-27c8.6-7.9,18.6-12.3,27.7-13.1c9.2-0.8,17.3,1.9,22.6,8.2c5.3,6.2,7,15,5.1,24.3
	C110.3,96,104.9,105.8,96.4,113.6z"/>
<path class="st1" d="M48.6,76.5c2.4-21.2-5.2-26.3-7.3-33.4c-2-7.1-0.1-14.4,1.8-21.2c1.9-6.8-0.5-11.1-0.5-11.1"/>
<path class="st1" d="M45.8,119.8c20.9-6.7,24.9-23,28.5-29.4c3.6-6.5,8.3-14.7,14.4-17.9c6.1-3.1,15.7-13.8,15.7-13.8"/>
<path class="st0" d="M41.4,94.5c0,0-26.4-4.4-26.4-43.9s28.4-40.1,28.4-40.1s16.5-2.7,26.4,16.5c10,19.2,5,29.1,5,29.1"/>
</svg>
