<svg id="Capa_1" data-name="Capa 1" xmlns="http://www.w3.org/2000/svg" viewBox="0 0 150 150"><defs><style>.cls-1,.cls-2{fill:none;stroke:#000;stroke-miterlimit:10;}.cls-1{stroke-width:4px;}.cls-3{fill:#231f20;}</style></defs><title>Prancheta 1</title><path class="cls-1" d="M114.82,132.62l-35,1.61c-3.23.15-6.45.15-9.68,0l-35-1.61a3.89,3.89,0,0,1-3.72-3.89V33.25l1-2-1-2v-10h87.08v10l-1,2,1,2v95.48A3.89,3.89,0,0,1,114.82,132.62Z"/><line class="cls-2" x1="38.96" y1="31.25" x2="111.04" y2="31.25"/><path class="cls-3" d="M72.78,68.18v-.34H75v.47l4.87.19a.94.94,0,1,0,0-1.88L75,66.81V67L74.91,67a.1.1,0,0,1,0-.19.55.55,0,0,0,.21-.17c.07-.12-.16,0-.26-.22a.55.55,0,0,1-.06-.32c0-.24,0-.6,0-.6a.18.18,0,0,1,.17-.17h0c.09,0,.05-.14.05-.24v-.77s0-.18.42-.32a3.34,3.34,0,0,0,1.21-.87h0a1.17,1.17,0,0,1-.1,1.07s.77-.3.63-.93h0v0a.12.12,0,0,1,.05,0h.06a.1.1,0,0,1,.05,0h0a.65.65,0,0,1,0,.78s.68-.28.64-.84c0-.14-.17-.7.09-.65a1.44,1.44,0,0,0,1.09-.35.85.85,0,0,1-.86-.24h0a.09.09,0,0,1,0-.06.14.14,0,0,1,0-.06.09.09,0,0,1,.07,0h0c.63.35,1.26-.28,1.26-.28s-.79.27-1.38-.93A3.22,3.22,0,0,0,78,60a1.46,1.46,0,0,0-.59-.59,1.42,1.42,0,0,0-.71-.19,1.45,1.45,0,0,0-1.45,1.43,1.24,1.24,0,0,0,0,.35c.07.42-.12.52-.12.52a.94.94,0,0,1-1.09.08.75.75,0,0,1-.3-.86,4.39,4.39,0,0,0,0-2.43.39.39,0,0,1,0-.11.26.26,0,0,1,.26-.25l.12,0c.17.08.25.38.25.38a.59.59,0,0,0-.3-.85c.35-.2.81.21.81.21C75,57,74,57,74,57c.11-.49,1-.37,1-.37a1.08,1.08,0,0,0-1.5-.19c0-.31.42-.56.42-.56s-1.44-.21-1.46,1.2a1,1,0,0,0-.82-.12,1,1,0,0,1,.6.48.92.92,0,0,1-.47-.27.59.59,0,0,0,.42.58,1.45,1.45,0,0,0-.25.13.48.48,0,0,0-.17.18.2.2,0,0,0,0,.13.21.21,0,0,0,0,.15.25.25,0,0,0,.16.1h0a.42.42,0,0,0,.3-.06,1.48,1.48,0,0,0,.37-.31s0,.23-.86.73l-.05,0A2.71,2.71,0,0,0,70.33,61a2.21,2.21,0,0,0,.6,1.45c.87,1,3.65,2,3.52,4,0,.21-.16.54-.79.59,0,0-.35,0-.35.23h-.53v-.35a.23.23,0,0,0-.22-.23H69.31a.23.23,0,0,0-.23.23v1.24a.23.23,0,0,0,.23.23h0a.85.85,0,0,0,.83.69h.43v.1a1.35,1.35,0,0,0-.66.45.25.25,0,0,0,0,.15.23.23,0,0,0,.23.23.23.23,0,0,0,.22-.17A.55.55,0,0,1,71,69.4a.6.6,0,0,1,.56.46.22.22,0,0,0,.22.17A.24.24,0,0,0,72,69.8a.2.2,0,0,0-.06-.15,1.29,1.29,0,0,0-.65-.45v-.1h.43a.85.85,0,0,0,.83-.69h0A.22.22,0,0,0,72.78,68.18Z"/><polygon class="cls-3" points="71.47 93.83 71.47 91.98 71.13 91.98 71.14 94.14 72.03 94.14 72.03 93.83 71.47 93.83"/><rect class="cls-3" x="72.54" y="91.98" width="0.34" height="2.16" transform="translate(-0.36 0.28) rotate(-0.22)"/><path class="cls-3" d="M73.67,92.45c0-.15.07-.21.17-.21s.17.06.18.21v.09h.31v-.07c0-.34-.17-.54-.5-.54s-.5.2-.49.55c0,.61.66.69.66,1.14,0,.15-.06.21-.17.21s-.18-.06-.18-.21v-.16h-.32v.14a.48.48,0,0,0,.51.54c.33,0,.5-.2.5-.55C74.34,93,73.68,92.89,73.67,92.45Z"/><path class="cls-3" d="M75.53,93a.44.44,0,0,0,.22-.44v-.08c0-.33-.15-.49-.5-.49h-.52v2.16h.53a.47.47,0,0,0,.52-.52v-.17A.43.43,0,0,0,75.53,93Zm-.46-.7h.17c.12,0,.17.06.17.22v.12c0,.17-.07.23-.2.23h-.13Zm.2,1.54h-.19v-.66h.15c.15,0,.22.06.22.26v.18C75.45,93.78,75.39,93.83,75.27,93.83Z"/><path class="cls-3" d="M76.79,91.93a.48.48,0,0,0-.51.55V93.6a.52.52,0,1,0,1,0V92.47A.49.49,0,0,0,76.79,91.93Zm0,1.9c-.11,0-.18-.06-.18-.21V92.45c0-.15.07-.21.18-.21s.18.06.18.21v1.17C77,93.77,76.9,93.83,76.8,93.83Z"/><path class="cls-3" d="M78,92l-.33,2.16H78l0-.4h.42l.06.4h.34L78.52,92Zm.08,1.47.15-1.09.17,1.09Z"/><path class="cls-3" d="M60.7,88.54V89c0,.22-.1.3-.26.31s-.25-.09-.25-.31V87.28c0-.23.1-.31.26-.31s.26.08.26.31v.34h.47v-.31a.75.75,0,1,0-1.49,0V89c0,.51.25.8.74.79a.7.7,0,0,0,.75-.8v-.42Z"/><path class="cls-3" d="M62.64,86.51a.72.72,0,0,0-.76.81V89a.76.76,0,1,0,1.51,0V87.31A.71.71,0,0,0,62.64,86.51Zm0,2.8c-.16,0-.26-.09-.26-.31V87.28c0-.23.1-.31.26-.31s.26.08.26.31V89C62.91,89.22,62.81,89.31,62.65,89.31Z"/><polygon class="cls-3" points="65.47 86.58 64.15 86.59 64.17 89.76 64.67 89.76 64.66 88.45 65.31 88.45 65.3 87.99 64.66 88 64.66 87.04 65.48 87.03 65.47 86.58"/><polygon class="cls-3" points="67.63 86.58 66.31 86.59 66.33 89.76 66.83 89.76 66.82 88.45 67.46 88.45 67.46 87.99 66.82 88 66.81 87.04 67.64 87.03 67.63 86.58"/><polygon class="cls-3" points="68.83 89.31 68.83 88.38 69.51 88.37 69.51 87.92 68.82 87.92 68.82 87.04 69.68 87.03 69.68 86.58 68.32 86.59 68.33 89.76 69.69 89.76 69.69 89.3 68.83 89.31"/><polygon class="cls-3" points="71.67 89.3 70.81 89.31 70.81 88.38 71.49 88.37 71.49 87.92 70.8 87.92 70.8 87.04 71.66 87.03 71.66 86.58 70.3 86.59 70.31 89.76 71.67 89.76 71.67 89.3"/><path class="cls-3" d="M75,88.87v.5a1.19,1.19,0,0,0,0,.39h.51a1,1,0,0,1,0-.39v-.49c0-.33-.08-.57-.33-.67a.63.63,0,0,0,.32-.65v-.25c0-.49-.22-.73-.74-.73H74v3.17h.5V88.47h.18C74.89,88.47,75,88.57,75,88.87Zm-.5-.86V87h.24c.18,0,.25.1.25.32v.32c0,.25-.11.33-.29.33Z"/><path class="cls-3" d="M77.83,87.31a.76.76,0,1,0-1.52,0V89a.76.76,0,1,0,1.52,0Zm-.76,2c-.15,0-.25-.09-.26-.31V87.28c0-.23.1-.31.25-.31s.26.08.27.31V89C77.33,89.22,77.23,89.31,77.07,89.31Z"/><path class="cls-3" d="M78.94,86.58l-.5,3.18h.46l.09-.57h.61l.09.58h.5l-.52-3.18Zm.11,2.17.23-1.6.25,1.6Z"/><path class="cls-3" d="M81.11,87.28c0-.23.09-.31.25-.31s.25.08.25.31v.13h.48v-.1c0-.51-.26-.8-.74-.8a.7.7,0,0,0-.74.8c0,.91,1,1,1,1.69,0,.22-.1.3-.26.31s-.26-.09-.26-.31v-.23h-.47V89c0,.51.25.8.74.79s.75-.29.75-.8C82.09,88.05,81.12,87.93,81.11,87.28Z"/><polygon class="cls-3" points="84.24 86.58 82.7 86.59 82.7 87.04 83.22 87.04 83.23 89.76 83.73 89.76 83.72 87.04 84.24 87.04 84.24 86.58"/><polygon class="cls-3" points="85.46 89.31 85.46 88.38 86.14 88.37 86.14 87.92 85.46 87.92 85.45 87.04 86.32 87.03 86.31 86.58 84.95 86.59 84.97 89.76 86.33 89.76 86.33 89.3 85.46 89.31"/><path class="cls-3" d="M88.45,88.88c0-.33-.08-.57-.33-.67a.64.64,0,0,0,.32-.65v-.25c0-.49-.22-.73-.74-.73H87v3.17h.5V88.47h.17c.23,0,.33.1.33.4v.5a1.08,1.08,0,0,0,0,.39h.51a1.14,1.14,0,0,1-.06-.39Zm-.8-.87h-.2V87h.24c.17,0,.25.1.25.32v.32C87.94,87.93,87.83,88,87.65,88Z"/><path class="cls-3" d="M89.55,87.28c0-.23.09-.31.25-.31s.25.08.25.31v.13h.47v-.1c0-.51-.25-.8-.74-.8s-.73.3-.73.81c0,.9,1,1,1,1.68,0,.22-.09.3-.25.31s-.26-.09-.26-.31v-.23H89V89c0,.51.26.8.75.79s.74-.29.74-.8C90.53,88.05,89.55,87.94,89.55,87.28Z"/><rect class="cls-3" x="57.76" y="87.89" width="1.21" height="0.51"/><rect class="cls-3" x="91.03" y="87.89" width="1.21" height="0.51"/><polygon class="cls-3" points="58.3 79.27 58.09 77.85 56.06 78.16 55.6 75.16 58.17 74.76 57.95 73.33 53.81 73.98 55.36 83.94 56.92 83.69 56.28 79.58 58.3 79.27"/><rect class="cls-3" x="77.05" y="76.56" width="10.08" height="1.58" transform="translate(1.14 155.89) rotate(-87.43)"/><path class="cls-3" d="M89.61,79.17l-1.49-.12L88,80.48c-.07.72-.4,1-.9.91s-.8-.33-.74-1l.46-5.42c.07-.72.4-1,.91-.92s.79.34.73,1.06l-.09,1.07,1.49.13.08-1c.14-1.6-.58-2.59-2.13-2.72a2.21,2.21,0,0,0-2.57,2.32l-.45,5.23a2.2,2.2,0,0,0,2.14,2.72c1.55.13,2.43-.72,2.57-2.32Z"/><polygon class="cls-3" points="96.01 73.64 93.72 73.31 90.7 83.06 92.14 83.27 92.67 81.5 93.42 81.61 93.62 80.25 93.06 80.17 94.53 75.23 94.57 80.39 94.02 80.31 93.83 81.66 94.59 81.77 94.6 83.62 96.19 83.85 96.01 73.64"/><path class="cls-3" d="M77.56,79.44V81a3.16,3.16,0,0,0,.13,1.24H79.3a2.91,2.91,0,0,1-.17-1.22V79.49c0-1-.25-1.81-1-2.15a2,2,0,0,0,1-2H77.57v.27c0,.81-.37,1.07-1,1.06H76l0-3.1h.77c.56,0,.8.32.8,1V75h1.59v-.47c0-1.55-.69-2.32-2.33-2.33l-2.39,0-.07,10.08H76l0-4.1h.55C77.25,78.16,77.56,78.5,77.56,79.44Z"/><polygon class="cls-3" points="63.75 70.56 62.2 70.71 61.39 72.4 62.45 72.3 63.75 70.56"/><polygon class="cls-3" points="61.13 72.98 60.52 83.17 61.97 83.02 62.06 81.17 62.82 81.1 62.69 79.74 62.13 79.79 62.38 74.64 63.65 79.64 63.09 79.7 63.23 81.06 64 80.98 64.45 82.77 66.04 82.62 63.44 72.75 61.13 72.98"/><path class="cls-3" d="M72.39,79.07A2,2,0,0,0,71.12,77a2,2,0,0,0,.93-2.08l0-.36a2,2,0,0,0-2.44-2.21l-.4,0,.06,1.44.36,0c.56,0,.82.28.85,1l0,.56c0,.81-.31,1.08-.9,1.11l-.62,0-.12-2.67h0l-.06-1.43-1.58.07.44,10.07,1.59-.07L69.16,81h0L69,77.89l.71,0c.72,0,1,.25,1.07,1.18l0,.88c0,.75-.24,1-.77,1l-.5,0,.07,1.44.49,0a2.15,2.15,0,0,0,2.3-2.5Z"/></svg>