<svg id="Capa_1" data-name="Capa 1" xmlns="http://www.w3.org/2000/svg" viewBox="0 0 150 150"><title>Prancheta 1</title><path d="M44.4,93.81a3.29,3.29,0,1,0,3.29,3.29A3.3,3.3,0,0,0,44.4,93.81Z"/><path d="M112.4,93.81a3.29,3.29,0,1,0,3.29,3.29A3.3,3.3,0,0,0,112.4,93.81Z"/><path d="M125.88,72.72l-12.25-4.09-5.72-15.74a5,5,0,0,0-4.69-3.28H88.49V46.1a3.3,3.3,0,0,0-3.29-3.29H24a3.3,3.3,0,0,0-3.29,3.29V92A3.3,3.3,0,0,0,24,95.29H34.48a9.83,9.83,0,0,0-.17,1.81,10.09,10.09,0,0,0,20.18,0,10.78,10.78,0,0,0-.16-1.81h48.15a9.83,9.83,0,0,0-.17,1.81,10.09,10.09,0,1,0,19.92-2.28l3.36-1.69a6.65,6.65,0,0,0,3.7-6v-9.7A5,5,0,0,0,125.88,72.72ZM23.89,46.1A.11.11,0,0,1,24,46H85.2a.11.11,0,0,1,.11.11V80.21H23.89ZM44.4,104a6.91,6.91,0,1,1,6.91-6.91A6.92,6.92,0,0,1,44.4,104Zm40.91-11.9H53.16a10.07,10.07,0,0,0-17.52,0H24a.11.11,0,0,1-.11-.11V83.39H85.31ZM107,59.59l3.17,8.72h-3.42l-3.17-8.72Zm-18.47-6.8h14.73a1.82,1.82,0,0,1,1.7,1.19l.88,2.43H88.49Zm0,6.8h11.67l3.17,8.72H88.49ZM112.4,104a6.91,6.91,0,1,1,6.91-6.91A6.92,6.92,0,0,1,112.4,104Zm13.71-23.8H124.3a1.59,1.59,0,0,0,0,3.18h1.81v3.76a3.49,3.49,0,0,1-1.94,3.14L121,91.86a10.08,10.08,0,0,0-17.38.25H88.49V83.39h29a1.59,1.59,0,0,0,0-3.18h-29V71.49h23.65l12.73,4.24a1.82,1.82,0,0,1,1.24,1.72v2.76Z"/><path d="M74.09,61.72l-11.9-6.8a1.59,1.59,0,0,0-1.58,2.76l6.7,3.83H35.9a1.59,1.59,0,1,0,0,3.18H67.31l-6.7,3.83a1.59,1.59,0,0,0,.79,3,1.61,1.61,0,0,0,.79-.21l11.9-6.8a1.59,1.59,0,0,0,0-2.76Z"/></svg>